<?xml version="1.0" encoding="UTF-8" standalone="no"?>
<!-- Created with Inkscape (http://www.inkscape.org/) -->

<svg
   width="17.657125mm"
   height="16.809763mm"
   viewBox="0 0 17.657125 16.809763"
   version="1.1"
   id="svg1"
   xml:space="preserve"
   xmlns="http://www.w3.org/2000/svg"
   xmlns:svg="http://www.w3.org/2000/svg"><defs
     id="defs1" /><g
     id="layer1"
     transform="translate(-75.497064,-139.00558)"><g
       id="g11"><path
         id="path2"
         style="opacity:1;fill:#000000;fill-rule:evenodd;stroke-width:0.265;stroke-dasharray:none;paint-order:stroke markers fill"
         d="m 98.577962,154.14098 v -8.03052 a 0.26388262,0.26388262 44.924029 0 0 -0.264582,-0.26388 l -0.44395,0.001 a 1.9457374,1.9457374 135.06429 0 0 -1.940555,1.9362 l -0.02263,4.62223 a 1.9889126,1.9889126 45.170279 0 0 1.986805,1.99865 l 0.420329,4.4e-4 a 0.26430621,0.26430621 135.03002 0 0 0.264583,-0.2643 z"
         transform="translate(-20.40916,0.0093561)" /><path
         id="path9"
         style="opacity:1;fill:#000000;fill-rule:evenodd;stroke-width:0.264583"
         d="m 107.40225,139.52805 -0.71479,1.17691 a 10.265825,10.265825 137.70969 0 1 -4.29774,3.90931 l -2.29486,1.112 a 0.31099743,0.31099743 122.0735 0 0 -0.175378,0.27987 v 8.14518 a 0.31347853,0.31347853 49.834839 0 0 0.260828,0.30902 l 7.57875,1.29133 a 3.8232375,3.8232375 149.88383 0 0 4.23261,-2.45515 l 1.7223,-4.70692 a 2.3039546,2.3039546 54.998052 0 0 -2.16776,-3.09565 l -1.83751,0.003 a 0.34938479,0.34938479 61.742853 0 1 -0.29167,-0.54267 l 0.29312,-0.44139 a 5.5648875,5.5648875 106.53004 0 0 0.92887,-3.12979 2.3500061,2.3500061 57.187096 0 0 -1.27614,-1.9792 l -0.47363,-0.26615 a 1.105904,1.105904 165.30286 0 0 -1.487,0.39003 z"
         transform="translate(-20.700076,0.0093561)" /></g></g></svg>
